# xmcd
#
# Track frame offsets:
# 150
# 14176
# 26780
# 40886
# 55428
# 70542
# 83609
# 95753
# 111875
# 125933
# 139838
# 150829
# 166539
# 184498
# 199841
# 217709
# 234619
# 252455
# 267411
#
# Disc length: 3739 seconds
#
#
# Revision: 0
# Processed by: cddbd v1.5.2PL0 Copyright (c) Steve Scherf et al.
# Submitted via: FreeRIP 2.951 
#
DISCID=120e9913
DTITLE=GUILHERME E SANTIAGO 2010 - METE SUA BOCA
DYEAR=2010
DGENRE=SERTANEJO
TTITLE0=METE SUA BOCA
TTITLE1=TÁ SE ACHANDO
TTITLE2=SOLTEIRO SIM,SOZINHO NUNCA
TTITLE3=NOITES
TTITLE4=QUE DÁ VONTADE DÁ
TTITLE5=SAFADA,CACHORRA,BANDIDA
TTITLE6=ME LEVA
TTITLE7=TÔ PRÁ LÁ DE BAGDA
TTITLE8=TUDO TEM UM PORQUE
TTITLE9=O EXTASE DO AMOR
TTITLE10=E DAÍ
TTITLE11=DEIXA DE ORGULHO
TTITLE12=O AMOR QUE EU SONHEI
TTITLE13=O BATIDÃO DE GOIÁS
TTITLE14=CHOVENDO ESTRELAS
TTITLE15=ALÔ MEU POVO
TTITLE16=E PRA SEMPRE TE AMAR
TTITLE17=DO OUTRO LADO DA CIDADE
TTITLE18=O AMOR É ASSIM
EXTD=
EXTT0=
EXTT1=
EXTT2=
EXTT3=
EXTT4=
EXTT5=
EXTT6=
EXTT7=
EXTT8=
EXTT9=
EXTT10=
EXTT11=
EXTT12=
EXTT13=
EXTT14=
EXTT15=
EXTT16=
EXTT17=
EXTT18=
PLAYORDER=
